<?xml version="1.0" standalone="no"?>
<!DOCTYPE svg PUBLIC "-//W3C//DTD SVG 20010904//EN"
 "http://www.w3.org/TR/2001/REC-SVG-20010904/DTD/svg10.dtd">
<svg version="1.0" xmlns="http://www.w3.org/2000/svg"
 width="300.000000pt" height="300.000000pt" viewBox="0 0 300.000000 300.000000"
 preserveAspectRatio="xMidYMid meet">
<metadata>
Created by potrace 1.10, written by Peter Selinger 2001-2011
</metadata>
<g transform="translate(0.000000,300.000000) scale(0.100000,-0.100000)"
fill="#000000" stroke="none">
<path d="M770 2195 l0 -525 63 -31 c173 -86 366 -252 476 -409 52 -74 131
-222 131 -246 0 -7 3 -15 8 -17 4 -3 6 279 4 626 l-3 632 -82 83 c-145 148
-296 260 -480 357 -57 30 -107 55 -110 55 -4 0 -7 -236 -7 -525z m119 431
c157 -79 379 -251 489 -379 l42 -48 0 -520 c0 -412 -3 -520 -12 -517 -7 3 -40
42 -73 88 -111 155 -274 301 -442 395 -44 26 -83 54 -85 63 -3 14 -2 921 1
945 2 11 7 9 80 -27z"/>
<path d="M2115 2662 c-194 -102 -306 -183 -467 -341 l-108 -104 -2 -626 c-2
-344 -2 -627 -2 -629 1 -2 20 34 42 80 115 238 371 496 594 601 l68 32 0 523
c0 287 -3 522 -7 522 -5 0 -57 -26 -118 -58z m85 -487 l0 -473 -81 -49 c-45
-26 -89 -52 -98 -58 -98 -60 -283 -244 -376 -372 -32 -46 -61 -81 -64 -78 -9
9 -8 1028 1 1056 9 25 132 145 239 232 112 91 350 234 370 221 5 -3 9 -216 9
-479z"/>
<path d="M610 2415 c-75 -48 -70 -11 -73 -513 l-2 -451 65 -12 c104 -19 263
-74 368 -129 153 -78 266 -176 415 -360 l29 -35 -22 40 c-40 73 -134 197 -219
286 -126 135 -282 247 -437 314 l-79 34 -5 424 -5 424 -35 -22z m10 -446 c3
-211 9 -390 13 -397 5 -7 50 -32 102 -56 82 -39 194 -106 249 -150 33 -27 10
-28 -41 -3 -50 25 -189 74 -303 105 l-65 18 -3 417 c-2 416 1 464 31 454 9 -3
13 -105 17 -388z"/>
<path d="M2350 2012 l0 -429 -41 -12 c-55 -17 -182 -84 -254 -136 -145 -104
-290 -252 -394 -405 -94 -139 -90 -139 22 -2 160 196 451 363 720 414 l67 13
0 451 0 452 -47 35 c-27 18 -54 37 -60 41 -10 6 -13 -81 -13 -422z m77 325
c11 -26 11 -826 0 -844 -4 -6 -29 -16 -55 -22 -89 -19 -219 -65 -330 -118 -48
-23 -48 -11 0 29 58 46 147 99 240 141 43 20 81 45 88 57 8 15 11 130 10 399
0 207 2 380 6 383 10 11 31 -2 41 -25z"/>
<path d="M368 2033 c-24 -32 -59 -79 -76 -105 l-32 -47 0 -485 0 -486 41 0
c59 0 241 -28 331 -51 345 -87 640 -273 827 -522 24 -32 47 -54 51 -50 3 4 25
33 48 65 68 90 213 223 321 294 223 145 459 227 744 256 l117 12 0 481 c0 471
0 481 -21 515 -32 52 -120 170 -127 170 -4 0 -6 -227 -4 -504 l2 -505 -57 -6
c-392 -42 -673 -168 -925 -415 l-108 -105 -61 68 c-156 173 -415 329 -654 393
-103 28 -263 54 -330 54 l-46 0 7 515 c4 283 5 515 2 515 -3 0 -25 -26 -50
-57z m12 -503 c0 -312 3 -446 12 -465 13 -30 48 -40 163 -50 88 -7 243 -43
338 -79 176 -66 339 -171 488 -313 59 -57 114 -103 124 -103 9 0 56 39 103 86
241 239 526 376 867 418 162 20 147 -31 146 500 0 262 4 446 9 446 5 0 24 -21
42 -47 l33 -48 3 -340 c2 -187 1 -395 -3 -462 -8 -138 1 -126 -110 -138 -309
-34 -618 -158 -844 -340 -63 -50 -156 -143 -213 -213 -15 -17 -31 -32 -37 -32
-5 0 -25 21 -44 48 -140 189 -442 384 -742 476 -66 20 -235 53 -310 61 -98 10
-102 11 -108 47 -2 18 -4 227 -3 463 l1 430 33 48 c18 26 37 47 42 47 6 0 10
-168 10 -440z"/>
<path d="M535 1263 l0 -79 135 -26 c298 -59 514 -161 694 -329 42 -39 76 -68
76 -64 0 18 -128 158 -205 225 -116 100 -188 150 -317 216 -101 51 -271 114
-349 129 l-34 6 0 -78z m165 -3 c103 -34 240 -98 289 -135 44 -32 32 -32 -55
1 -38 14 -131 38 -206 54 -76 16 -142 31 -147 34 -9 6 -12 55 -4 69 7 12 32 8
123 -23z"/>
<path d="M2360 1306 c-232 -61 -443 -178 -621 -345 -75 -70 -189 -201 -175
-201 3 0 35 29 71 64 121 120 328 238 508 290 74 22 184 45 290 61 l37 6 0 74
c0 54 -4 75 -12 74 -7 0 -51 -11 -98 -23z m75 -45 c12 -38 -3 -47 -123 -71
-98 -19 -218 -52 -307 -85 -39 -15 7 21 69 55 76 40 142 67 236 96 93 28 117
29 125 5z"/>
</g>
</svg>
