<?xml version="1.0" standalone="no"?>
<!DOCTYPE svg PUBLIC "-//W3C//DTD SVG 20010904//EN"
 "http://www.w3.org/TR/2001/REC-SVG-20010904/DTD/svg10.dtd">
<svg version="1.0" xmlns="http://www.w3.org/2000/svg"
 width="300.000000pt" height="300.000000pt" viewBox="0 0 300.000000 300.000000"
 preserveAspectRatio="xMidYMid meet">
<metadata>
Created by potrace 1.10, written by Peter Selinger 2001-2011
</metadata>
<g transform="translate(0.000000,300.000000) scale(0.100000,-0.100000)"
fill="#000000" stroke="none">
<path d="M2437 2763 c-4 -3 -7 -26 -7 -50 l0 -43 50 0 50 0 0 50 0 50 -43 0
c-24 0 -47 -3 -50 -7z m55 -58 c-12 -22 -27 -2 -18 22 5 12 10 13 17 6 7 -7 8
-17 1 -28z"/>
<path d="M560 2670 l0 -50 50 0 50 0 0 50 0 50 -50 0 -50 0 0 -50z m70 6 c0
-8 -7 -16 -15 -20 -8 -3 -15 -4 -15 -2 0 3 -3 11 -6 20 -4 12 0 16 15 16 12 0
21 -6 21 -14z"/>
<path d="M2576 2533 l2 -48 48 0 47 0 2 48 2 47 -51 0 -52 0 2 -47z m62 0 c-5
-25 -28 -28 -28 -4 0 12 6 21 16 21 9 0 14 -7 12 -17z"/>
<path d="M2250 2488 l0 -48 -50 0 -50 0 0 -50 0 -50 50 0 50 0 0 -45 0 -45 50
0 50 0 0 45 0 45 45 0 45 0 0 50 0 50 -45 0 -45 0 0 44 0 44 -50 4 -50 3 0
-47z m60 -9 c0 -20 -15 -26 -24 -10 -8 13 4 42 15 35 5 -3 9 -14 9 -25z m30
-86 l0 -43 -45 0 -45 0 0 43 0 44 45 0 45 0 0 -44z m-125 -3 c0 -7 -6 -15 -12
-17 -8 -3 -13 4 -13 17 0 13 5 20 13 18 6 -3 12 -11 12 -18z m195 6 c0 -20
-19 -31 -32 -18 -6 6 -7 15 -4 21 10 16 36 13 36 -3z m-100 -102 c0 -8 -7 -14
-15 -14 -15 0 -21 21 -9 33 10 9 24 -2 24 -19z"/>
<path d="M230 2485 l0 -45 -45 0 -45 0 0 -50 0 -50 45 0 45 0 0 -45 0 -45 50
0 50 0 0 44 0 45 47 3 46 3 0 45 0 45 -46 3 -47 3 0 45 0 44 -50 0 -50 0 0
-45z m66 4 c8 -14 -18 -31 -30 -19 -9 9 0 30 14 30 5 0 12 -5 16 -11z m32 -96
l3 -43 -45 0 -46 0 0 44 0 44 43 -1 42 -2 3 -42z m62 -3 c0 -10 -5 -22 -10
-25 -13 -8 -24 20 -16 41 8 20 26 9 26 -16z m-186 12 c2 -4 1 -14 -4 -22 -7
-11 -12 -12 -21 -3 -6 6 -8 16 -5 22 8 13 23 14 30 3z m96 -102 c0 -5 -5 -12
-11 -16 -14 -8 -33 11 -25 25 7 11 36 4 36 -9z"/>
<path d="M560 2300 l0 -50 50 0 50 0 0 50 0 50 -50 0 -50 0 0 -50z m68 -2 c-3
-7 -11 -13 -18 -13 -7 0 -15 6 -17 13 -3 7 4 12 17 12 13 0 20 -5 18 -12z"/>
<path d="M531 2094 c-17 -7 -31 -10 -31 -7 0 3 -6 1 -12 -5 -7 -6 -15 -10 -18
-10 -19 3 -104 -54 -151 -101 -130 -130 -154 -235 -154 -676 0 -213 4 -305 20
-465 11 -104 15 -149 21 -230 3 -47 7 -101 8 -120 2 -19 7 -72 11 -117 l8 -83
143 0 144 0 0 66 c0 77 -22 86 -30 13 l-5 -44 -87 -5 c-48 -3 -98 -3 -110 0
-27 7 -34 36 -42 165 -3 50 -6 90 -6 90 -2 0 -4 24 -24 255 -8 91 -18 210 -21
265 -9 142 -15 208 -21 217 -3 4 2 8 10 8 11 0 13 8 9 35 -5 30 -2 36 18 43
23 9 23 9 -5 16 -18 4 -26 12 -23 21 3 7 8 51 12 97 16 235 52 342 141 431 53
51 142 100 219 118 28 7 59 18 70 26 18 12 16 13 -22 11 -23 0 -55 -7 -72 -14z"/>
<path d="M613 2032 c-80 -149 -118 -276 -135 -448 -9 -101 3 -501 27 -889 2
-33 5 -108 7 -167 2 -60 6 -108 10 -108 3 0 194 -31 424 -69 l417 -70 62 45
c35 24 68 44 75 44 7 0 41 -20 76 -44 l63 -45 418 70 c229 38 419 69 422 69 3
0 7 48 9 108 2 59 4 132 6 162 29 511 38 795 28 895 -17 171 -55 299 -135 447
l-42 78 -845 0 -845 0 -42 -78z m456 51 c25 3 56 9 68 12 21 7 19 1 -21 -78
-83 -163 -81 -138 -84 -865 l-3 -642 -95 0 -95 0 4 647 c3 580 5 654 21 707
23 79 62 163 92 203 22 29 28 32 46 22 12 -6 41 -9 67 -6z m864 -1 c36 -3 62
0 71 7 11 10 19 5 40 -22 30 -40 68 -123 92 -203 16 -53 18 -127 21 -707 l4
-647 -95 0 -95 0 -3 642 c-3 727 -1 702 -84 865 -32 62 -39 83 -26 78 9 -4 43
-10 75 -13z m-1033 -15 c0 -5 5 -5 10 -2 14 9 13 5 -19 -66 -55 -122 -63 -168
-67 -384 -2 -110 -5 -204 -5 -210 -1 -5 0 -26 0 -45 1 -19 3 -218 4 -442 1
-223 6 -410 10 -415 5 -4 50 -10 101 -11 71 -3 95 -1 104 11 9 10 12 166 14
616 1 698 3 714 75 868 45 95 -32 86 683 83 13 0 28 -20 66 -86 18 -34 52
-146 62 -205 4 -30 9 -326 10 -658 2 -418 6 -609 14 -618 12 -15 174 -18 198
-3 13 8 15 67 17 412 2 222 3 405 4 408 0 3 0 21 0 40 -1 19 -3 130 -5 245 -3
180 -6 220 -24 280 -21 68 -42 121 -63 158 -6 11 -9 20 -7 22 2 2 54 5 116 7
101 3 115 2 138 -17 41 -33 123 -227 150 -360 24 -114 27 -331 8 -575 -9 -126
-24 -446 -24 -527 0 -46 -4 -83 -9 -83 -4 0 -6 -10 -4 -23 4 -20 -1 -25 -34
-35 -67 -20 -763 -131 -781 -125 -9 4 -41 22 -69 41 -63 42 -87 40 -166 -13
l-55 -36 -365 61 c-436 73 -401 66 -426 80 -23 12 -28 36 -8 43 8 4 6 6 -4 6
-14 1 -17 27 -23 184 -4 100 -9 202 -11 227 -10 159 -19 396 -18 520 1 172 14
274 49 378 23 68 36 99 91 204 26 51 48 58 160 56 57 -2 103 -7 103 -11z"/>
<path d="M918 1163 c12 -2 30 -2 40 0 9 3 -1 5 -23 4 -22 0 -30 -2 -17 -4z"/>
<path d="M1435 1631 c-79 -20 -145 -74 -183 -145 -22 -42 -26 -64 -27 -126 0
-86 22 -138 84 -204 20 -21 32 -40 26 -42 -51 -19 -80 -42 -87 -69 -4 -16 -7
-117 -5 -222 2 -179 3 -194 23 -213 19 -19 33 -21 232 -23 278 -3 256 -22 260
234 1 104 -1 204 -6 222 -7 29 -34 51 -87 71 -5 2 6 21 26 42 62 66 84 118 84
204 -1 116 -50 197 -156 251 -43 22 -138 32 -184 20z m182 -37 c81 -51 129
-119 143 -208 7 -43 4 -60 -16 -110 -26 -64 -49 -96 -71 -96 -19 0 -16 35 8
82 31 61 24 160 -15 216 -41 59 -100 85 -180 80 -80 -5 -135 -38 -165 -100
-28 -58 -28 -140 -1 -193 25 -50 27 -88 3 -83 -17 3 -68 69 -71 92 -14 98 -13
130 3 173 29 76 95 138 175 164 39 13 155 2 187 -17z m-49 -59 c70 -30 121
-102 122 -173 0 -37 -23 -97 -47 -124 -15 -17 -17 -17 -38 6 -32 35 -94 50
-146 36 -23 -6 -51 -22 -64 -36 -21 -23 -23 -23 -38 -6 -9 10 -23 34 -32 55
-38 91 5 194 100 238 49 23 94 24 143 4z m10 -291 c36 -24 62 -74 62 -121 0
-42 1 -43 34 -43 61 0 66 -18 66 -235 0 -156 -3 -195 -16 -213 -15 -22 -19
-22 -222 -22 -114 0 -214 5 -222 10 -12 8 -16 45 -18 210 -4 232 1 250 63 250
35 0 35 1 35 44 0 111 126 180 218 120z"/>
<path d="M1466 1154 c-9 -8 -16 -29 -16 -45 0 -28 1 -29 50 -29 49 0 50 1 50
29 0 34 -23 61 -50 61 -10 0 -26 -7 -34 -16z"/>
<path d="M1470 920 c-24 -24 -24 -29 -4 -58 12 -17 15 -41 12 -90 -3 -66 -3
-67 22 -67 25 0 25 1 22 67 -3 49 0 73 12 90 9 12 16 26 16 30 0 11 -38 48
-50 48 -5 0 -19 -9 -30 -20z"/>
<path d="M2365 2102 c6 -6 44 -20 85 -32 92 -27 150 -59 216 -122 86 -81 123
-192 139 -416 3 -51 8 -99 11 -106 3 -7 -5 -18 -18 -24 -20 -9 -20 -11 -4 -11
16 -1 18 -7 13 -41 -4 -31 -2 -40 9 -40 11 0 12 -4 4 -19 -5 -11 -10 -57 -10
-103 -1 -46 -5 -128 -10 -183 -5 -55 -16 -185 -25 -290 -26 -321 -33 -387 -43
-397 -5 -5 -56 -7 -113 -6 l-104 3 -5 44 c-8 73 -30 64 -30 -13 l0 -66 144 0
143 0 8 83 c4 45 9 98 11 117 1 19 5 73 8 120 7 90 14 174 21 227 14 108 20
258 20 473 0 434 -23 537 -150 666 -48 49 -128 105 -155 109 -3 0 -11 4 -17 8
-7 5 -13 6 -13 2 0 -3 -9 -1 -20 5 -27 15 -128 25 -115 12z"/>
<path d="M291 1576 c-20 -24 -5 -65 26 -72 35 -9 66 26 54 59 -10 27 -62 35
-80 13z"/>
<path d="M2631 1568 c-15 -41 14 -74 54 -64 29 7 43 49 25 71 -20 24 -69 19
-79 -7z"/>
<path d="M297 1202 c-34 -37 -11 -76 40 -70 22 2 29 9 31 31 6 52 -38 76 -71
39z"/>
<path d="M2641 1206 c-7 -8 -11 -27 -9 -43 2 -22 9 -29 31 -31 52 -6 76 38 39
71 -23 21 -46 22 -61 3z"/>
<path d="M291 826 c-20 -23 -5 -65 24 -72 35 -9 57 12 53 50 -3 27 -7 31 -34
34 -19 2 -36 -3 -43 -12z"/>
<path d="M2631 818 c-15 -41 14 -74 54 -64 29 7 43 49 25 71 -20 24 -69 19
-79 -7z"/>
</g>
</svg>
