<?xml version="1.0" standalone="no"?>
<!DOCTYPE svg PUBLIC "-//W3C//DTD SVG 20010904//EN"
 "http://www.w3.org/TR/2001/REC-SVG-20010904/DTD/svg10.dtd">
<svg version="1.0" xmlns="http://www.w3.org/2000/svg"
 width="300.000000pt" height="300.000000pt" viewBox="0 0 300.000000 300.000000"
 preserveAspectRatio="xMidYMid meet">
<metadata>
Created by potrace 1.10, written by Peter Selinger 2001-2011
</metadata>
<g transform="translate(0.000000,300.000000) scale(0.100000,-0.100000)"
fill="#000000" stroke="none">
<path d="M1595 2604 c-91 -13 -237 -49 -282 -70 -69 -33 -96 -67 -129 -166
-15 -46 -33 -92 -41 -103 -22 -32 -180 -115 -220 -115 -19 0 -71 9 -115 21
-90 23 -119 20 -190 -19 -59 -31 -237 -213 -263 -267 -14 -30 -18 -59 -16
-117 1 -43 -3 -95 -9 -115 -21 -69 56 -527 126 -763 95 -316 218 -457 427
-490 153 -24 216 32 277 245 63 221 90 302 107 317 37 32 682 378 705 378 14
0 103 -23 199 -51 235 -69 247 -72 303 -65 71 8 116 42 154 117 87 172 61 323
-95 542 -117 166 -575 595 -658 618 -21 6 -64 30 -97 55 -33 24 -68 44 -78 44
-10 0 -30 2 -46 4 -16 2 -42 2 -59 0z m83 -44 c23 -6 64 -26 91 -45 27 -20 69
-42 93 -51 55 -18 246 -180 423 -358 323 -324 411 -529 316 -732 -60 -129
-123 -138 -401 -55 -241 71 -224 70 -333 16 -50 -25 -110 -56 -132 -68 -22
-13 -74 -42 -115 -64 -41 -22 -138 -75 -215 -117 -77 -42 -152 -89 -166 -105
-25 -27 -46 -86 -109 -301 -35 -123 -51 -160 -82 -196 -39 -45 -92 -59 -169
-45 -208 36 -322 193 -418 578 -28 111 -62 292 -75 393 -3 25 -10 81 -16 124
-7 56 -7 91 1 120 7 24 8 68 5 105 -9 85 12 127 122 242 134 141 180 160 310
128 111 -27 135 -25 231 24 107 56 142 91 165 164 24 75 48 123 78 150 43 40
149 73 318 97 14 2 27 4 30 4 3 1 24 -3 48 -8z"/>
<path d="M1311 2415 c-17 -20 -31 -43 -31 -51 0 -8 -14 -49 -31 -91 -36 -84
-42 -90 -211 -178 l-95 -49 -89 18 c-146 30 -150 30 -189 6 -19 -12 -35 -28
-35 -36 0 -11 7 -9 33 6 42 26 70 25 183 -6 56 -15 103 -22 117 -18 48 15 258
137 277 161 11 14 32 66 47 115 26 88 39 107 99 145 17 11 16 12 -12 12 -24 1
-39 -7 -63 -34z"/>
<path d="M1371 2404 c-42 -35 -49 -49 -81 -169 -15 -56 -35 -113 -44 -127 -17
-26 -182 -121 -228 -132 -17 -4 -66 7 -138 29 -118 37 -163 42 -205 23 -44
-20 -28 -30 38 -23 56 6 71 3 154 -29 97 -38 153 -44 200 -24 62 28 150 83
186 117 38 36 43 48 72 182 9 42 24 85 34 96 27 29 54 73 49 79 -3 3 -20 -7
-37 -22z"/>
<path d="M1612 2404 c-185 -33 -210 -58 -257 -262 -10 -42 -28 -85 -41 -101
-34 -40 -263 -161 -305 -161 -19 0 -82 16 -139 35 -57 19 -118 35 -136 35 -33
0 -91 -34 -135 -79 -139 -142 -191 -226 -183 -295 6 -52 44 -315 49 -341 64
-336 143 -550 242 -652 102 -104 258 -130 313 -52 12 16 46 111 75 212 30 101
61 199 69 218 21 48 69 90 161 139 44 24 100 54 125 68 25 13 119 65 210 115
91 49 174 96 185 103 11 7 41 20 68 29 58 20 101 13 302 -46 239 -70 249 -72
295 -32 65 54 93 168 66 272 -41 160 -232 391 -561 678 -147 129 -156 133
-249 132 -45 -1 -114 -7 -154 -15z m365 -133 c263 -226 470 -456 539 -598 48
-98 42 -228 -15 -302 -26 -34 -61 -30 -280 34 -291 85 -237 96 -673 -142 -314
-171 -366 -203 -390 -238 -24 -34 -88 -225 -137 -411 -6 -23 -21 -54 -33 -69
-20 -26 -25 -27 -79 -22 -72 6 -150 47 -195 103 -105 128 -204 477 -255 894
l-12 105 27 43 c46 73 172 207 218 232 l44 23 128 -43 c93 -31 138 -41 165
-37 46 6 289 140 318 174 13 16 33 74 53 152 17 69 39 134 47 144 21 22 92 43
208 61 179 28 165 33 322 -103z"/>
<path d="M1650 2258 c-11 -12 -20 -35 -20 -50 0 -36 40 -78 75 -78 36 0 75 42
75 80 0 64 -85 96 -130 48z m90 -23 c17 -20 5 -62 -20 -70 -42 -13 -71 24 -54
69 8 20 57 21 74 1z"/>
<path d="M1830 2210 c-47 -47 -11 -130 56 -130 37 0 74 38 74 75 0 12 -9 34
-21 49 -26 33 -79 36 -109 6z m69 -20 c28 -15 33 -38 12 -59 -39 -39 -92 9
-55 50 20 22 20 22 43 9z"/>
<path d="M1630 2103 c-56 -21 -70 -96 -24 -132 15 -12 33 -21 41 -21 28 0 73
31 79 55 10 39 -4 73 -36 90 -31 16 -36 17 -60 8z m68 -75 c4 -35 -42 -56 -69
-32 -26 23 -24 59 4 71 29 14 61 -5 65 -39z"/>
<path d="M1777 2033 c-28 -32 -26 -84 5 -113 66 -62 164 31 108 103 -26 33
-87 38 -113 10z m87 -29 c12 -33 6 -55 -20 -64 -29 -11 -54 6 -54 37 0 39 61
61 74 27z"/>
<path d="M1596 1836 c-84 -31 -148 -138 -131 -219 41 -192 288 -228 377 -54
29 58 22 142 -18 199 -51 72 -147 104 -228 74z m152 -52 c43 -25 65 -63 70
-119 8 -99 -47 -165 -143 -173 -62 -5 -102 13 -139 61 -105 138 63 320 212
231z"/>
<path d="M1592 1755 c-60 -51 -75 -100 -46 -161 36 -76 136 -98 198 -43 62 54
67 122 12 185 -27 31 -39 37 -82 41 -44 5 -54 2 -82 -22z m139 -44 c37 -37 38
-79 4 -119 -32 -39 -74 -48 -114 -28 -37 20 -51 44 -51 89 0 81 101 117 161
58z"/>
<path d="M685 1698 c-124 -44 -174 -194 -99 -300 63 -90 184 -114 274 -54 48
31 90 110 90 166 -1 129 -144 230 -265 188z m164 -66 c42 -34 65 -91 58 -146
-6 -46 -31 -82 -78 -114 -67 -47 -186 -12 -223 65 -40 84 -1 186 84 222 43 18
119 5 159 -27z"/>
<path d="M683 1620 c-57 -35 -79 -110 -49 -168 21 -40 47 -60 93 -70 52 -12
96 8 131 58 74 110 -61 250 -175 180z m132 -45 c17 -17 25 -35 25 -60 0 -47
-14 -71 -51 -91 -78 -40 -165 47 -125 125 20 38 41 50 89 51 27 0 45 -7 62
-25z"/>
<path d="M1105 1600 c-33 -22 -65 -73 -65 -106 0 -11 -7 -36 -16 -53 -34 -69
4 -158 79 -184 143 -49 181 -50 232 -6 21 19 39 47 46 72 6 23 18 60 26 83 28
80 -22 168 -102 181 -22 3 -50 12 -65 20 -37 19 -100 16 -135 -7z m60 -32
c-11 -6 -32 -22 -47 -36 -23 -21 -28 -23 -28 -9 0 18 55 57 80 57 10 -1 9 -4
-5 -12z m90 -7 c39 -19 39 -19 12 -20 -16 -1 -40 8 -54 19 -32 25 -11 25 42 1z
m-42 -57 l17 -35 31 21 c16 12 31 21 33 19 19 -29 36 -60 36 -67 0 -5 -13 -15
-30 -22 -34 -14 -36 -19 -15 -46 21 -28 18 -37 -17 -57 -31 -18 -34 -18 -43
-2 -30 50 -31 50 -58 32 -15 -9 -28 -17 -31 -17 -2 0 -13 16 -25 35 l-21 36
35 16 35 17 -19 32 -20 33 32 20 c42 26 41 26 60 -15z m147 5 c6 -10 10 -28
10 -41 -1 -20 -2 -19 -14 8 -8 18 -19 35 -25 38 -6 4 -11 11 -11 16 0 15 30
-1 40 -21z m-260 -46 c0 -8 -10 -27 -21 -41 l-22 -27 8 40 c4 22 9 43 12 48 7
11 23 -2 23 -20z m265 -60 c-4 -10 -13 -39 -21 -65 -15 -49 -44 -78 -79 -78
-15 0 -10 7 20 27 22 14 42 28 44 29 2 2 4 20 3 41 -2 36 11 63 30 63 6 0 7
-8 3 -17z m-295 -36 c0 -6 14 -26 32 -44 36 -37 23 -45 -16 -10 -24 21 -46 84
-25 72 5 -4 9 -11 9 -18z m147 -94 c3 -7 -9 -7 -37 0 -37 10 -39 13 -24 24 14
11 21 10 38 0 11 -8 21 -18 23 -24z"/>
</g>
</svg>
