<?xml version="1.0" standalone="no"?>
<!DOCTYPE svg PUBLIC "-//W3C//DTD SVG 20010904//EN"
 "http://www.w3.org/TR/2001/REC-SVG-20010904/DTD/svg10.dtd">
<svg version="1.0" xmlns="http://www.w3.org/2000/svg"
 width="300.000000pt" height="300.000000pt" viewBox="0 0 300.000000 300.000000"
 preserveAspectRatio="xMidYMid meet">
<metadata>
Created by potrace 1.10, written by Peter Selinger 2001-2011
</metadata>
<g transform="translate(0.000000,300.000000) scale(0.100000,-0.100000)"
fill="#000000" stroke="none">
<path d="M1366 2460 c-212 -34 -382 -118 -535 -264 -132 -128 -222 -279 -268
-453 -21 -80 -26 -122 -27 -233 -1 -147 15 -241 61 -360 29 -74 113 -222 125
-218 4 2 75 83 158 181 105 125 150 185 150 202 0 14 2 25 4 25 3 0 36 -23 73
-52 73 -55 233 -137 320 -165 29 -9 53 -19 53 -22 0 -3 -15 -16 -33 -27 -45
-29 -297 -472 -276 -485 8 -5 55 -18 104 -30 120 -30 314 -32 430 -5 78 18
201 61 219 77 5 4 -23 43 -63 86 -94 104 -235 285 -273 350 -23 40 -36 53 -53
53 -72 0 -327 121 -432 205 -95 75 -122 133 -92 199 l12 25 29 -24 c16 -14 34
-25 40 -25 6 0 -6 15 -27 33 -32 28 -38 40 -42 84 -5 42 -2 54 16 72 l21 21
32 -20 c49 -30 59 -24 13 7 -51 34 -55 40 -55 91 0 35 6 49 29 73 36 36 60 36
117 3 25 -15 47 -24 50 -21 3 2 -15 16 -40 31 -36 21 -48 35 -56 66 -27 101
52 159 158 115 44 -19 282 -175 282 -185 0 -4 -7 -13 -16 -21 -48 -40 -59
-126 -19 -157 19 -15 24 -27 22 -62 -1 -35 3 -46 26 -66 16 -13 34 -24 41 -24
8 0 11 -11 8 -33 -6 -53 33 -92 91 -92 41 0 45 -2 53 -30 14 -45 54 -61 120
-46 l54 12 102 -89 c57 -49 142 -123 189 -165 l87 -76 40 97 c60 146 77 233
76 392 -1 111 -6 153 -27 233 -46 174 -136 325 -268 453 -128 122 -263 198
-426 240 -111 28 -281 39 -377 24z m229 -40 c129 -15 197 -35 311 -90 128 -62
236 -147 318 -251 198 -251 255 -573 154 -875 -18 -54 -38 -99 -44 -101 -12
-4 -68 41 -241 195 l-72 64 5 57 c5 43 2 65 -10 89 -9 17 -16 47 -16 66 0 19
-5 38 -11 41 -6 4 -7 19 -4 37 12 53 -3 94 -50 140 -34 33 -45 51 -45 74 0 18
-12 48 -30 72 -16 23 -30 47 -30 52 0 26 -31 68 -57 78 -44 17 -325 26 -365
12 -28 -10 -40 -9 -81 9 -61 26 -113 27 -154 1 -43 -26 -62 -57 -70 -115 -5
-37 -13 -55 -35 -73 -41 -35 -58 -73 -58 -132 0 -28 -7 -64 -15 -81 -10 -18
-15 -50 -14 -82 2 -29 -4 -73 -11 -99 -13 -44 -12 -51 9 -104 22 -53 23 -58 8
-89 -12 -25 -102 -136 -255 -315 -9 -11 -52 57 -82 129 -111 264 -103 533 23
788 135 275 415 470 722 503 102 11 102 11 200 0z m178 -392 c31 -16 16 -50
-36 -84 -27 -17 -66 -35 -89 -38 -38 -6 -47 -2 -140 59 -56 36 -105 65 -110
65 -5 0 -6 5 -2 11 8 13 349 2 377 -13z m57 -110 c13 -15 20 -35 20 -64 0 -52
-30 -80 -138 -132 -40 -19 -71 -36 -69 -39 8 -7 108 37 163 72 54 35 56 35 88
20 41 -20 59 -51 54 -96 -2 -27 -10 -38 -43 -56 -39 -22 -102 -45 -159 -58
-15 -3 -26 -9 -23 -12 9 -8 105 17 166 43 29 13 55 24 56 24 9 0 25 -69 19
-83 -3 -9 -31 -31 -61 -48 -30 -17 -52 -33 -49 -36 3 -3 30 9 60 26 l55 31 16
-22 c42 -61 -14 -128 -108 -128 -44 0 -61 20 -54 65 5 33 5 34 -19 24 -42 -15
-89 -11 -109 11 -13 15 -16 30 -13 65 4 31 2 45 -6 43 -6 -1 -23 1 -38 5 -33
9 -46 47 -29 83 14 31 14 34 -1 34 -18 0 -58 41 -58 60 0 38 54 98 129 143 86
51 121 57 151 25z m-271 -882 c31 -50 158 -214 221 -286 86 -99 86 -97 51
-115 -109 -56 -370 -77 -523 -41 -43 9 -80 21 -83 26 -7 12 202 379 238 418
40 42 69 42 96 -2z"/>
</g>
</svg>
