<?xml version="1.0" standalone="no"?>
<!DOCTYPE svg PUBLIC "-//W3C//DTD SVG 20010904//EN"
 "http://www.w3.org/TR/2001/REC-SVG-20010904/DTD/svg10.dtd">
<svg version="1.0" xmlns="http://www.w3.org/2000/svg"
 width="300.000000pt" height="300.000000pt" viewBox="0 0 300.000000 300.000000"
 preserveAspectRatio="xMidYMid meet">
<metadata>
Created by potrace 1.10, written by Peter Selinger 2001-2011
</metadata>
<g transform="translate(0.000000,300.000000) scale(0.100000,-0.100000)"
fill="#000000" stroke="none">
<path d="M1420 2333 c-87 -44 -177 -182 -215 -327 -58 -230 -39 -508 50 -692
36 -75 105 -160 148 -183 23 -12 28 -11 53 8 15 11 34 21 44 21 10 0 29 -10
44 -21 25 -19 30 -20 53 -8 43 23 112 108 148 183 62 129 80 226 79 426 0 148
-4 187 -23 255 -59 216 -162 342 -289 351 -42 4 -66 0 -92 -13z m173 -37 c87
-36 171 -182 202 -351 21 -110 16 -337 -9 -430 -51 -191 -147 -305 -256 -305
-106 0 -198 108 -252 297 -20 68 -23 101 -23 253 0 152 3 185 23 255 64 223
189 334 315 281z m-183 -12 c0 -8 -19 -13 -24 -6 -3 5 1 9 9 9 8 0 15 -2 15
-3z m-36 -28 c-3 -8 -11 -17 -19 -19 -7 -3 -27 -35 -45 -71 -17 -36 -36 -66
-42 -66 -6 0 -5 8 4 18 8 9 21 33 28 51 12 30 65 101 76 101 2 0 1 -6 -2 -14z
m-108 -190 c0 -15 -5 -21 -10 -16 -5 5 -6 16 -3 24 9 23 15 19 13 -8z m-14
-49 c-25 -32 -40 -239 -25 -362 4 -33 6 -64 5 -68 -1 -4 5 -34 15 -65 9 -31
18 -60 19 -64 1 -5 3 -11 4 -15 1 -5 3 -12 4 -18 4 -21 47 -104 56 -110 6 -4
7 -11 4 -17 -4 -6 -2 -8 4 -4 6 3 21 -8 33 -26 13 -18 27 -35 31 -36 5 -2 6
-8 3 -12 -3 -5 2 -8 12 -6 10 2 32 -5 48 -15 17 -11 24 -19 18 -20 -7 -1 -18
-2 -23 -3 -6 0 -15 -8 -20 -16 -8 -12 -11 -12 -28 3 -10 9 -24 17 -30 17 -7 0
-12 3 -12 8 0 4 -14 22 -31 40 -17 18 -27 37 -23 44 4 6 3 8 -3 5 -11 -7 -22
13 -59 106 -12 31 -17 54 -11 50 7 -4 6 1 -2 10 -8 10 -16 30 -18 45 -2 15 -7
45 -10 67 -3 22 -7 61 -7 88 -1 26 -4 47 -8 47 -7 0 -1 97 11 180 5 30 6 61 3
69 -4 10 -1 12 8 6 10 -6 12 -4 7 10 -9 21 13 86 25 79 5 -3 5 -11 0 -17z
m401 -796 c-13 -11 -23 -24 -23 -29 0 -5 -9 -12 -21 -15 -12 -3 -18 -10 -14
-17 8 -13 -14 -9 -31 5 -15 13 -6 28 12 21 7 -3 19 0 26 7 16 15 61 46 68 46
3 0 -5 -8 -17 -18z"/>
<path d="M1695 2121 c-3 -5 -2 -12 3 -15 5 -3 9 1 9 9 0 17 -3 19 -12 6z"/>
<path d="M1485 2057 c-99 -87 -152 -139 -138 -135 7 1 48 36 92 76 111 100
116 90 6 -14 -49 -47 -80 -79 -67 -71 33 21 211 181 206 186 -2 2 -12 -3 -22
-12 -26 -24 -39 -21 -17 3 40 44 6 25 -60 -33z"/>
<path d="M1456 1114 c-8 -20 -8 -348 0 -368 4 -11 19 -16 44 -16 25 0 40 5 44
16 8 20 8 348 0 368 -8 22 -80 22 -88 0z m56 -19 c10 -4 12 -40 10 -173 -3
-159 -4 -168 -22 -168 -19 0 -20 8 -20 173 0 98 4 173 9 173 5 0 15 -2 23 -5z"/>
<path d="M1252 748 c-40 -5 -83 -13 -96 -18 -29 -11 -29 -39 -1 -50 100 -38
591 -38 690 0 28 11 28 39 0 50 -27 10 -186 30 -242 30 -36 0 -43 -3 -43 -20
0 -18 -7 -20 -60 -20 -53 0 -60 2 -60 20 0 18 -6 20 -57 19 -32 -1 -91 -6
-131 -11z m186 -38 c45 -24 20 -29 -93 -19 -50 4 -101 8 -114 8 -16 1 -21 5
-15 10 25 25 175 25 222 1z m344 2 c9 -9 6 -12 -12 -13 -14 0 -65 -4 -115 -8
-51 -5 -99 -4 -110 1 -18 8 -18 8 3 4 14 -3 22 1 22 9 0 7 6 16 13 18 24 10
188 0 199 -11z m-270 -24 c-9 -9 -15 -9 -24 0 -9 9 -7 12 12 12 19 0 21 -3 12
-12z"/>
</g>
</svg>
