<?xml version="1.0" standalone="no"?>
<!DOCTYPE svg PUBLIC "-//W3C//DTD SVG 20010904//EN"
 "http://www.w3.org/TR/2001/REC-SVG-20010904/DTD/svg10.dtd">
<svg version="1.0" xmlns="http://www.w3.org/2000/svg"
 width="1024.000000pt" height="1024.000000pt" viewBox="0 0 1024.000000 1024.000000"
 preserveAspectRatio="xMidYMid meet">

<g transform="translate(0.000000,1024.000000) scale(0.100000,-0.100000)"
fill="#003932" stroke="none">
<path d="M5095 8267 c-16 -7 -43 -19 -60 -29 -131 -72 -146 -275 -28 -378 l36
-32 -7 -113 c-4 -62 -18 -236 -31 -386 -14 -151 -25 -295 -25 -320 l0 -46 133
4 c72 3 163 1 200 -4 l68 -10 -5 41 c-3 23 -10 102 -16 176 -6 74 -15 185 -20
245 -5 61 -15 179 -21 263 l-12 153 41 42 c99 101 98 233 -2 333 -55 56 -100
74 -176 73 -25 0 -58 -6 -75 -12z"/>
<path d="M4930 6805 c-219 -28 -435 -79 -563 -134 l-47 -20 0 -135 0 -135 58
28 c110 54 348 121 432 121 20 0 20 -18 20 -1870 l0 -1870 59 -142 c32 -79
104 -255 161 -393 136 -332 122 -309 149 -245 12 29 37 91 56 139 18 47 85
210 149 361 l116 274 0 1875 0 1874 53 -7 c96 -11 288 -66 373 -105 l84 -40 0
134 0 134 -29 16 c-59 30 -301 96 -446 120 -191 33 -455 41 -625 20z m340
-2129 l0 -1883 -31 -99 c-17 -55 -38 -123 -48 -153 l-17 -54 -19 69 c-10 38
-32 112 -49 164 l-31 95 3 1873 2 1872 95 0 95 0 0 -1884z"/>
</g>
</svg>
